<svg width="24" height="24" viewBox="0 0 24 24" fill="none" xmlns="http://www.w3.org/2000/svg">
<g clip-path="url(#clip0_5_159)">
<path fill-rule="evenodd" clip-rule="evenodd" d="M2.14074 12C2.20271 12.1071 2.27614 12.2309 2.36088 12.3687C2.67952 12.8871 3.15481 13.5991 3.77668 14.3659C5.56058 16.5654 8.37047 19 12 19C15.6295 19 18.4394 16.5654 20.2233 14.3659C20.5712 13.9369 21.2009 13.8712 21.6299 14.2191C22.0588 14.5669 22.1246 15.1967 21.7767 15.6256C19.8766 17.9685 16.5534 21 12 21C7.44661 21 4.12338 17.9685 2.22332 15.6256C1.53577 14.7779 1.01106 13.992 0.657059 13.4161C0.479779 13.1277 0.344547 12.8908 0.252411 12.7235C0.206324 12.6398 0.170962 12.5734 0.146457 12.5266C0.134203 12.5033 0.124659 12.4848 0.117841 12.4714L0.109658 12.4554L0.107103 12.4503L0.105708 12.4475C0.10564 12.4474 0.105573 12.4472 1 12C0.105573 11.5528 0.105742 11.5525 0.105926 11.5521L0.10754 11.5489L0.110991 11.5421L0.122339 11.5199C0.131876 11.5013 0.145357 11.4753 0.162754 11.4425C0.197541 11.3767 0.248024 11.2833 0.313972 11.166C0.445792 10.9317 0.639851 10.6015 0.894336 10.2075C1.40207 9.42134 2.15684 8.37063 3.14546 7.31609C5.10448 5.22647 8.10049 3.00003 12 3.00003C15.8995 3.00003 18.8955 5.22647 20.8545 7.31609C21.8432 8.37063 22.5979 9.42134 23.1057 10.2075C23.3601 10.6015 23.5542 10.9317 23.686 11.166C23.752 11.2833 23.8025 11.3767 23.8372 11.4425C23.8546 11.4753 23.8681 11.5013 23.8777 11.5199L23.889 11.5421L23.8925 11.5489L23.8936 11.5512C23.8938 11.5516 23.8944 11.5528 23.0357 11.9822L23.8944 11.5528C24.1414 12.0468 23.9412 12.6475 23.4472 12.8945C22.9534 13.1414 22.353 12.9414 22.1058 12.4478M2.14074 12C2.25003 11.8112 2.39492 11.5705 2.57441 11.2926C3.03544 10.5787 3.71817 9.62943 4.60454 8.68397C6.39552 6.77359 8.89951 5.00003 12 5.00003C15.1005 5.00003 17.6045 6.77359 19.3955 8.68397C20.2818 9.62943 20.9646 10.5787 21.4256 11.2926C21.6555 11.6485 21.8286 11.9434 21.9429 12.1465C22 12.2481 22.0423 12.3265 22.0695 12.3779C22.0831 12.4036 22.0929 12.4226 22.099 12.4343L22.1058 12.4478M1 12L0.105708 12.4475C-0.0350553 12.166 -0.0348382 11.8336 0.105926 11.5521L1 12Z" fill="#293148" fill-opacity="0.45"/>
<path fill-rule="evenodd" clip-rule="evenodd" d="M11.398 8.13083C12.2415 7.90965 13.1342 7.97019 13.9402 8.30323C14.7461 8.63627 15.4211 9.22356 15.8625 9.97569C16.142 10.452 15.9824 11.0648 15.5061 11.3443C15.0297 11.6238 14.417 11.4642 14.1375 10.9879C13.9168 10.6118 13.5793 10.3182 13.1764 10.1516C12.7734 9.98511 12.327 9.95484 11.9053 10.0654C11.4835 10.176 11.1094 10.4214 10.84 10.7642C10.5706 11.1071 10.4206 11.5285 10.4129 11.9645C10.4051 12.4005 10.54 12.827 10.7971 13.1792C11.0542 13.5314 11.4193 13.7899 11.8369 13.9154C12.2544 14.0409 12.7016 14.0265 13.1102 13.8744C13.5188 13.7223 13.8666 13.4408 14.1005 13.0728C14.3967 12.6067 15.0147 12.469 15.4808 12.7653C15.9469 13.0615 16.0846 13.6795 15.7884 14.1457C15.3206 14.8816 14.6251 15.4446 13.8079 15.7488C12.9906 16.053 12.0963 16.0818 11.2612 15.8307C10.426 15.5797 9.69581 15.0627 9.18168 14.3583C8.66754 13.654 8.39768 12.8009 8.41317 11.929C8.42866 11.0571 8.72866 10.2141 9.26749 9.52845C9.80632 8.8428 10.5545 8.35202 11.398 8.13083Z" fill="#293148" fill-opacity="0.45"/>
</g>
<defs>
<clipPath id="clip0_5_159">
<rect width="24" height="24" fill="white"/>
</clipPath>
</defs>
</svg>
